/* XPM */
static char *bf3afe2c06d743289cb19d057043f5e1[] = {
/* columns rows colors chars-per-pixel */
"16 16 132 2 ",
"   c #AF623F",
".  c #B16236",
"X  c #B26437",
"o  c #B46538",
"O  c #B1673E",
"+  c #B3683D",
"@  c #9F6F56",
"#  c #9E705B",
"$  c #9F725A",
"%  c #B26641",
"&  c #B06940",
"*  c #B06A42",
"=  c #B76B41",
"-  c #BD6E44",
";  c #A0735B",
":  c #A0735D",
">  c #A27460",
",  c #A1806B",
"<  c #A2806A",
"1  c #A3816B",
"2  c #A3826C",
"3  c #AE8D73",
"4  c #AF8E75",
"5  c #B9977C",
"6  c #B9957E",
"7  c #B99A7D",
"8  c #F49349",
"9  c #F4934A",
"0  c #F4944C",
"q  c #F4954C",
"w  c #F4954D",
"e  c #F5974C",
"r  c #F4964D",
"t  c #F4964E",
"y  c #F4964F",
"u  c #F4984D",
"i  c #F59A55",
"p  c #F59B56",
"a  c #F39E57",
"s  c #F49C55",
"d  c #F49C56",
"f  c #F49D56",
"g  c #F49F57",
"h  c #F39F59",
"j  c #F49F59",
"k  c #F59D5A",
"l  c #F59E5B",
"z  c #F59E5C",
"x  c #F59F5D",
"c  c #F4A059",
"v  c #F4A15A",
"b  c #F3A35E",
"n  c #F4A25C",
"m  c #F5A05F",
"M  c #C08A6B",
"N  c #DC8D61",
"B  c #DB8F66",
"V  c #C39179",
"C  c #D8A77C",
"Z  c #D7AA7C",
"A  c #DBAA7B",
"S  c #DBA97D",
"D  c #DCAB7F",
"F  c #F5A161",
"G  c #F6A363",
"H  c #F6A364",
"J  c #F2A867",
"K  c #F1A769",
"L  c #F6A76B",
"P  c #F0A86A",
"I  c #F0A96A",
"U  c #F0A96C",
"Y  c #F1AA6D",
"T  c #F6A96F",
"R  c #FDA572",
"E  c #FBA575",
"W  c #F7AC72",
"Q  c #F7AC73",
"!  c #F7AF77",
"~  c #F7AF79",
"^  c #F6B077",
"/  c #F7B07A",
"(  c #F7B17C",
")  c #F7B37F",
"_  c #BC9A81",
"`  c #DBAC81",
"'  c #F8B888",
"]  c #F8B989",
"[  c #F8BC8E",
"{  c #F8BE91",
"}  c #F8BE92",
"|  c #DFBAA0",
" . c #E2BEA3",
".. c #EDBDA6",
"X. c #E7C09B",
"o. c #E4C09C",
"O. c #F9C49C",
"+. c #F9C69F",
"@. c #F9C8A2",
"#. c #FAC9A4",
"$. c #FACAA6",
"%. c #F1C7AE",
"&. c #F5CDA9",
"*. c #F7CFAA",
"=. c #FACCA9",
"-. c #FACDAB",
";. c #FACEAC",
":. c #F7D0AA",
">. c #F5D0AD",
",. c #F7D4AE",
"<. c #FBCBB1",
"1. c #F8CEB6",
"2. c #FBD3B5",
"3. c #FBD4B7",
"4. c #FBD8BD",
"5. c #FBD9BF",
"6. c #FBDAC0",
"7. c #FBDCC3",
"8. c #FBDCC4",
"9. c #FCE0CB",
"0. c #FCE4D1",
"q. c #FCE6D6",
"w. c #FDE9D9",
"e. c #FDEBDD",
"r. c #FDECDF",
"t. c #FDEDE0",
"y. c #FDEEE2",
"u. c #FDEEE3",
"i. c #FEF4EC",
"p. c #FEF5EE",
"a. c #FEF9F4",
"s. c None",
/* pixels */
"s.s.s.s.s.. @ ..<.M . s.s.s.s.s.",
"s.s.s.s.| Z U b b U Z 6 s.s.s.s.",
"s.s.N >.j 8 8 8 9 9 9 g ,.R s.s.",
"s.+ o.u 8 8 8 8 9 9 8 8 u >.- s.",
"s.3 a 8 8 8 8 8 8 8 9 9 9 a 5 s.",
"X C L 9.p t =.$.+.W p ;.e.[ ` o ",
"$ P ( p.z t 4.' O.4.0.e.{ G P $ ",
", v ( p.m t 4.z 9 =.a.^ 8 8 m , ",
"2 v ~ i.F t 5.j 8 2.p.t 8 8 v , ",
": P F i.) t 4.j F y.w./ 8 8 P ; ",
"  A t q.y.7.9.7.y.y.} 4.=.Q D % ",
"s.4 f z #.5.4.2.@.H 9 T ' ^ 7 s.",
"s.+ X.t 8 8 8 8 8 8 8 8 u :.= s.",
"s.s.B =.f 9 8 8 8 8 8 f *.E s.s.",
"s.s.s.s. .D J f j J A _ s.s.s.s.",
"s.s.s.s.s.& > %.1.V & s.s.s.s.s."
};
