/* XPM */
static char *_ff6035929d64e838cb38c5a7490d36c[] = {
/* columns rows colors chars-per-pixel */
"32 32 133 2 ",
"   c #7B6D66",
".  c #776E69",
"X  c #786D68",
"o  c #7D7975",
"O  c #7B7A78",
"+  c #D55F23",
"@  c #D76024",
"#  c #DC6326",
"$  c #D5672D",
"%  c #DD6629",
"&  c #D56A2E",
"*  c #D96A2D",
"=  c #D46D35",
"-  c #D86C32",
";  c #D96F38",
":  c #D97036",
">  c #E66C2D",
",  c #F7742D",
"<  c #F8732C",
"1  c #ED6D30",
"2  c #E37334",
"3  c #E4793D",
"4  c #FF7531",
"5  c #FF7A32",
"6  c #F57D3F",
"7  c #FE7F3A",
"8  c #8B6957",
"9  c #806559",
"0  c #86695A",
"q  c #8E6C5B",
"w  c #926A57",
"e  c #976D59",
"r  c #9A6F5A",
"t  c #97715E",
"y  c #B0714F",
"u  c #BD744B",
"i  c #AA7255",
"p  c #A37158",
"a  c #BB7752",
"s  c #827D7A",
"d  c #C27347",
"f  c #CB7448",
"g  c #C2794F",
"h  c #C37C52",
"j  c #FE803B",
"k  c #B0836D",
"l  c #AA8775",
"z  c #BC917B",
"x  c #CF875E",
"c  c #FE8342",
"v  c #FE8B4E",
"b  c #F49349",
"n  c #F4994E",
"m  c #F49750",
"M  c #F59952",
"N  c #F59E5B",
"B  c #F4A45C",
"V  c #C58666",
"C  c #CA8F72",
"Z  c #F6A364",
"A  c #F3AA63",
"S  c #F6A76B",
"D  c #F4AB6B",
"F  c #F3B16D",
"G  c #FBA777",
"H  c #F6AC73",
"J  c #F7AF79",
"K  c #F3B473",
"L  c #F6B37C",
"P  c #F2B97A",
"I  c #868482",
"U  c #898682",
"Y  c #8A8987",
"T  c #8B8B88",
"R  c #B4A58E",
"E  c #BBA68C",
"W  c #BEA98C",
"Q  c #A5A09B",
"!  c #AAA49F",
"~  c #ABA7A4",
"^  c #B1AEAA",
"/  c #BEB2A0",
"(  c #C4AA8B",
")  c #D2B38D",
"_  c #DAB38A",
"`  c #D2B592",
"'  c #DEBF9B",
"]  c #E3B686",
"[  c #E6B887",
"{  c #EAB884",
"}  c #F7B481",
"|  c #F8B786",
" . c #FBB28F",
".. c #F8BB8C",
"X. c #E3BF94",
"o. c #FBB590",
"O. c #F8BF93",
"+. c #CAB8A1",
"@. c #F9C095",
"#. c #F9C49C",
"$. c #FAC6A3",
"%. c #F9C9A3",
"&. c #FACCAB",
"*. c #F5D6B2",
"=. c #FBD2B4",
"-. c #F6D8B4",
";. c #FBD6B9",
":. c #F4DDBF",
">. c #FBD8BD",
",. c #DBD9D6",
"<. c #DCDCDB",
"1. c #ECD8CD",
"2. c #F9D6C1",
"3. c #F5DEC0",
"4. c #FCDDC6",
"5. c #F9D9C8",
"6. c #F6E1C5",
"7. c #F6E2C9",
"8. c #FCE0CC",
"9. c #FCE3D1",
"0. c #F8E4D9",
"q. c #F7E9D9",
"w. c #FBEADA",
"e. c #ECE6E3",
"r. c #FDEEE2",
"t. c #FEF1E6",
"y. c #F6F3ED",
"u. c #FEF4EC",
"i. c #F6F6F5",
"p. c #FBF6F2",
"a. c #FEF8F2",
"s. c #FFFBF8",
"d. c None",
/* pixels */
"d.d.d.d.d.d.d.d.d.d.d.d.d.# , j j 5 d.d.d.d.d.d.d.d.d.d.d.d.d.d.",
"d.d.d.d.d.d.d.d.d.d.$ d q 0 ,.i.i.p.1.e f * d.d.d.d.d.d.d.d.d.d.",
"d.d.d.d.d.d.d.d.7 C o R ] { K D A P P ] R o p 2 d.d.d.d.d.d.d.d.",
"d.d.d.d.d.d.d.G y.' K n b b b b b b b b n K ` Q G d.d.d.d.d.d.d.",
"d.d.d.d.d.5 $.q.K n b b b b b b b b b b b b n P q.$.5 d.d.d.d.d.",
"d.d.d.d.> 5.7.A b b b b b b b b b b b b b b b b D 3.5.5 d.d.d.d.",
"d.d.d.d.k :.B b b b b b b b b b b b b b b b b b b B :.&.d.d.d.d.",
"d.d.d.y +.A b b b b b b b b b b b b b b b b b b b b A q.x d.d.d.",
"d.d.- o P b b b b b b b b b b b b b b b b b b b b b b P Q - d.d.",
"d.d.p ) n b b b b b b b b n b b b b b b b b b b b b b n ' p d.d.",
"d.- s F b J &.&.N b b b @.@.@...| L M b b b N #.8.r.9.b K O = d.",
"d.u W n b %.u.u.S b b M >.>.>.;.>.>.;.} b L t.u.u.u.w.b n E g d.",
"d.8 ] b b &.u.u.D b b M 2.>.=.=.>.2.2.>.#.u.u.u.r.4.=.b b ] w d.",
"@ X P b b =.u.u.H b b M >.>.H b N O.>.>.t.u.u.=.M b b b b P X @ ",
"& O F b b ;.u.u.J b b m >.>.H b b b @.4.s.a.9.b b b b b b F O & ",
"= T A b b &.u.u.J b b m >.>.H b b b M w.s.a.L b b b b b b A U = ",
"- T B b b &.u.u.J b b M >.>.H b b b b t.s.u.b b b b b b b A T = ",
"& O F b b $.u.u.} b b m >.>.S b b b H a.s.r.m b b b b b b F O $ ",
"@ . K n b ..u.u.$.b b m >.>.D b b b 4.u.s.5.L b b b b b b P X + ",
"d.q ] b b H u.u.4.b b m >.>.S b b &.u.u.u.>.=.Z b b b b b [ q d.",
"d.g ( b b n t.u.u.>.$.%.;.;.#.#.4.u.u.u.&.;.>.>.$...} b n W h d.",
"d.; I F b b $.u.u.u.u.u.u.u.u.u.u.u.u.5.n #.>.>.>.>.=.b F I ; d.",
"d.d.t _ n b n @.r.u.u.u.u.u.u.u.u.u.=.n b b L &.>.>.;.n X.r d.d.",
"d.d.- s K b b b n H ..@.O.O.| J S M b b b b b b n N Z K ~ : d.d.",
"d.d.d.i +.A b b b b b b b b b b b b b b b b b b b b B 7.V d.d.d.",
"d.d.d.% l -.M b b b b b b b b b b b b b b b b b b M -.2.1 d.d.d.",
"d.d.d.d.2 0.*.B b b b b b b b b b b b b b b b b B *.0.7 d.d.d.d.",
"d.d.d.d.d.7 2.7.F b b b b b b b b b b b b b n K 7.2.7 d.d.d.d.d.",
"d.d.d.d.d.d.4  .p.X.A n b b b n b b b b n A _ ^ o.4 d.d.d.d.d.d.",
"d.d.d.d.d.d.d.d.c z U ( { K A B N A K { ( Y t 3 d.d.d.d.d.d.d.d.",
"d.d.d.d.d.d.d.d.d.d.= y 9 s <.y.y.i.e.0 a - d.d.d.d.d.d.d.d.d.d.",
"d.d.d.d.d.d.d.d.d.d.d.d.d.@ 6 v v j , d.d.d.d.d.d.d.d.d.d.d.d.d."
};
