/* XPM */
static char *_dea0635db154eeaa0a2399c3a33e001[] = {
/* columns rows colors chars-per-pixel */
"64 64 170 2 ",
"   c #646464",
".  c #6B6765",
"X  c #6F6864",
"o  c #6C6C6C",
"O  c #716763",
"+  c #746963",
"@  c #7C6C62",
"#  c #737372",
"$  c #787877",
"%  c #7B7B7A",
"&  c #F66E26",
"*  c #FF6F27",
"=  c #F36F28",
"-  c #FB6F29",
";  c #F77026",
":  c #F97127",
">  c #F67128",
",  c #FD742A",
"<  c #FF782F",
"1  c #E1793F",
"2  c #ED7B3F",
"3  c #FE7730",
"4  c #F37937",
"5  c #FD7A34",
"6  c #F67B3A",
"7  c #FD7D3A",
"8  c #846B5E",
"9  c #8C6D5D",
"0  c #976D55",
"q  c #9C6E56",
"w  c #966D59",
"e  c #9B6F59",
"r  c #AB6F4F",
"t  c #B26F4C",
"y  c #B2714D",
"u  c #BC724A",
"i  c #A16E53",
"p  c #A47154",
"a  c #816C61",
"s  c #C17249",
"d  c #D27745",
"f  c #DC7740",
"g  c #D57845",
"h  c #DE7942",
"j  c #E07740",
"k  c #E37A41",
"l  c #FC823F",
"z  c #E5834F",
"x  c #FD8442",
"c  c #FD8748",
"v  c #FD8A4B",
"b  c #F49349",
"n  c #F49A4E",
"m  c #FD8E51",
"M  c #F49750",
"N  c #FD9157",
"B  c #F59B54",
"V  c #FD965C",
"C  c #F69E5A",
"Z  c #F5A355",
"A  c #F6A15C",
"S  c #F4AB5F",
"D  c #FD9661",
"F  c #FB9F6C",
"G  c #F6A463",
"H  c #F4AE62",
"J  c #F6A66A",
"K  c #F7A96C",
"L  c #F4B266",
"P  c #F3B56A",
"I  c #F3B96F",
"U  c #FBA476",
"Y  c #F7AC73",
"T  c #FBA97B",
"R  c #F7B077",
"E  c #F3BD75",
"W  c #F7B27D",
"Q  c #F8B37C",
"!  c #F3BF7B",
"~  c #F3C17C",
"^  c #838382",
"/  c #8B8B8A",
"(  c #959593",
")  c #979895",
"_  c #9B9B99",
"`  c #A2A29E",
"'  c #AAA9A6",
"]  c #ABACA8",
"[  c #BAABA3",
"{  c #B5B3AC",
"}  c #BAB7AE",
"|  c #BDB9AE",
" . c #B4B4B4",
".. c #BDBAB1",
"X. c gray72",
"o. c #DDA081",
"O. c #D6AD9A",
"+. c #E3AC8F",
"@. c #F7B582",
"#. c #F8B685",
"$. c #F8B986",
"%. c #FBB28A",
"&. c #F9BC8C",
"*. c #F9BE93",
"=. c #C2BBAE",
"-. c #C4BDB0",
";. c #CABDB5",
":. c #D8BFB1",
">. c #F3C483",
",. c #F2C789",
"<. c #F2C98D",
"1. c #EFCA95",
"2. c #ECCD9D",
"3. c #F9C194",
"4. c #F2CC93",
"5. c #F9C59C",
"6. c #F1CE9A",
"7. c #FAC89F",
"8. c #CAC2AF",
"9. c #D0C5AE",
"0. c #DECCAF",
"q. c #CCC4B1",
"w. c #D3C9B3",
"e. c #DDCCB2",
"r. c #DDC8BC",
"t. c #E9CFA5",
"y. c #E3CCAB",
"u. c #FACAA4",
"i. c #FACDAB",
"p. c #E9D1A9",
"a. c #F2D3A3",
"s. c #FBD0AE",
"d. c #FBD3B4",
"f. c #F2DAB5",
"g. c #FBD6BB",
"h. c #F3DCB9",
"j. c #FBD8BD",
"k. c #C3C3C3",
"l. c #CCCCCB",
"z. c #D5CDC9",
"x. c #D7D4CD",
"c. c #DFD8CA",
"v. c #D4D4D3",
"b. c #D9DAD7",
"n. c #DBDBDB",
"m. c #F9D7C2",
"M. c #FBDBC5",
"N. c #FBDECB",
"B. c #E4DFD3",
"V. c #ECDDD3",
"C. c #F4E2C7",
"Z. c #F5E3CA",
"A. c #FDE2CD",
"S. c #FCE5D3",
"D. c #F4E9D5",
"F. c #F4EDDE",
"G. c #FDEADB",
"H. c #EBEBE9",
"J. c #F5EFE0",
"K. c #FBEDE2",
"L. c #F9EEEA",
"P. c #F3F0E5",
"I. c #FEF1E6",
"U. c #F5F3EC",
"Y. c #FEF4EC",
"T. c #F6F6F3",
"R. c #F9F5F3",
"E. c #FBF9F6",
"W. c #FBFAF8",
"Q. c None",
/* pixels */
"Q.Q.Q.Q.Q.Q.Q.Q.Q.Q.Q.Q.Q.Q.Q.Q.Q.Q.Q.Q.Q.Q.Q.Q.Q.Q.Q.Q.Q.Q.Q.Q.Q.Q.Q.Q.Q.Q.Q.Q.Q.Q.Q.Q.Q.Q.Q.Q.Q.Q.Q.Q.Q.Q.Q.Q.Q.Q.Q.Q.Q.Q.Q.Q.",
"Q.Q.Q.Q.Q.Q.Q.Q.Q.Q.Q.Q.Q.Q.Q.Q.Q.Q.Q.Q.Q.Q.Q.Q.Q., = , < 3 5 l l 5 3 , , , , Q.Q.Q.Q.Q.Q.Q.Q.Q.Q.Q.Q.Q.Q.Q.Q.Q.Q.Q.Q.Q.Q.Q.Q.Q.",
"Q.Q.Q.Q.Q.Q.Q.Q.Q.Q.Q.Q.Q.Q.Q.Q.Q.Q.Q.Q.Q., , < 2 u 0 8 ;.R.W.E.W.W.R.K.M.+.u k < & , Q.Q.Q.Q.Q.Q.Q.Q.Q.Q.Q.Q.Q.Q.Q.Q.Q.Q.Q.Q.Q.",
"Q.Q.Q.Q.Q.Q.Q.Q.Q.Q.Q.Q.Q.Q.Q.Q.Q.Q.Q.& , k q @       # l.T.T.T.T.T.T.T.W.b.  . @ q k , & Q.Q.Q.Q.Q.Q.Q.Q.Q.Q.Q.Q.Q.Q.Q.Q.Q.Q.Q.",
"Q.Q.Q.Q.Q.Q.Q.Q.Q.Q.Q.Q.Q.Q.Q.Q.Q., 3 u @     ^ ' 9.2.>.~ E I I P P E ! ,.a.9.' ^     @ u 3 : Q.Q.Q.Q.Q.Q.Q.Q.Q.Q.Q.Q.Q.Q.Q.Q.Q.",
"Q.Q.Q.Q.Q.Q.Q.Q.Q.Q.Q.Q.Q.Q.Q., 3 U V.  # ' y.>.I S n b b b b b b b b b b n H I >.y.' #   + u , < Q.Q.Q.Q.Q.Q.Q.Q.Q.Q.Q.Q.Q.Q.Q.",
"Q.Q.Q.Q.Q.Q.Q.Q.Q.Q.Q.Q.Q.Q., c N.W.H.| 1.I Z b b b b b b b b b b b b b b b b b b Z I 1.| $   :.c , Q.Q.Q.Q.Q.Q.Q.Q.Q.Q.Q.Q.Q.Q.",
"Q.Q.Q.Q.Q.Q.Q.Q.Q.Q.Q.Q., < %.W.E.U.1.P n b b b b b b b b b b b b b b b b b b b b b b n P 1. .v.E.*.3 , Q.Q.Q.Q.Q.Q.Q.Q.Q.Q.Q.Q.",
"Q.Q.Q.Q.Q.Q.Q.Q.Q.Q.Q., 7 M.W.W.h.E n b b b b b b b b b b b b b b b b b b b b b b b b b b M P f.T.W.M.7 , Q.Q.Q.Q.Q.Q.Q.Q.Q.Q.Q.",
"Q.Q.Q.Q.Q.Q.Q.Q.Q.Q., x G.W.U.<.Z b b b b b b b b b b b b b b b b b b b b b b b b b b b b b b H 1.U.W.G.x , Q.Q.Q.Q.Q.Q.Q.Q.Q.Q.",
"Q.Q.Q.Q.Q.Q.Q.Q.Q., c L.W.F.E B b b b b b b b b b b b b b b b b b b b b b b b b b b b b b b b b B E J.W.L.c , Q.Q.Q.Q.Q.Q.Q.Q.Q.",
"Q.Q.Q.Q.Q.Q.Q.Q., 6 L.W.D.I n b b b b b b b b b b b b b b b b b b b b b b b b b b b b b b b b b b b I D.E.L.c , Q.Q.Q.Q.Q.Q.Q.Q.",
"Q.Q.Q.Q.Q.Q.Q., 4 [ T.D.I b b b b b b b b b b b b b b b b b b b b b b b b b b b b b b b b b b b b b b I D.W.J.6 , Q.Q.Q.Q.Q.Q.Q.",
"Q.Q.Q.Q.Q.Q.Q.3 a  .P.I M b b b b b b b b b b b b b b b b b b b b b b b b b b b b b b b b b b b b b b b I F.W.N.3 Q.Q.Q.Q.Q.Q.Q.",
"Q.Q.Q.Q.Q.Q.> i   x.E n b b b b b b b b b b b b b b b b b b b b b b b b b b b b b b b b b b b b b b b b b E U.E.o., Q.Q.Q.Q.Q.Q.",
"Q.Q.Q.Q.Q., g   / ,.n b b b b b b b b b b b b b b b b b b b b b b b b b b b b b b b b b b b b b b b b b b n ,.T.l.g 3 Q.Q.Q.Q.Q.",
"Q.Q.Q.Q.Q.3 a o p.S b b b b b b b b b b b b b b b b b b b b b b b b b b b b b b b b b b b b b b b b b b b b S f.l.@ 3 Q.Q.Q.Q.Q.",
"Q.Q.Q.Q.= y   } I b b b b b b b b b b b b b b b b b b b b b b b b b b b b b b b b b b b b b b b b b b b b b b I B.  y = Q.Q.Q.Q.",
"Q.Q.Q.Q.5 X % <.M b b b b b b b b b b b b b b b b b b b b b b b b b b b b b b b b b b b b b b b b b b b b b b n <.% X 5 Q.Q.Q.Q.",
"Q.Q.Q., y   -.L b b b b b b b b b b b b b b b b b b b b b b b b b b b b b b b b b b b b b b b b b b b b b b b b P =.  t = Q.Q.Q.",
"Q.Q.Q.< + $ <.n b b b Y R R J J B b b b b b b b K K K J G G G S C C M b b b b b b b b b b b b J 7.j.S.S.S.u.b b n <.$ + < Q.Q.Q.",
"Q.Q.< g   } P b b b b Y.Y.Y.Y.Y.#.b b b b b b C j.j.g.j.j.j.g.j.g.j.g.7.Y M b b b b b b b @.S.Y.Y.Y.Y.Y.Y.K.b b b P {   g , Q.Q.",
"Q.Q.= w   t.Z b b b B Y.Y.Y.Y.Y.&.b b b b b b G j.j.j.j.j.j.j.j.j.j.j.j.j.u.G b b b b C A.Y.Y.Y.Y.Y.Y.Y.Y.S.b b b Z t.  w , Q.Q.",
"Q.Q.3 X / ~ b b b b G Y.Y.Y.Y.Y.*.b b b b b b C j.j.j.j.j.j.j.g.j.j.j.j.j.j.j.#.b b Y G.Y.Y.Y.Y.Y.Y.Y.Y.Y.S.b b b b ! / X 3 Q.Q.",
"Q.Q.h   { P b b b b K Y.Y.Y.Y.Y.*.b b b b b b C m.j.j.j.g.g.j.g.j.j.j.j.j.j.j.j.>.G G.Y.Y.Y.Y.Y.Y.Y.Y.Y.Y.M.b b b b P {   h Q.Q.",
"Q.& r   0.Z b b b b R Y.Y.Y.Y.Y.*.b b b b b b C j.j.j.j.i.&.3.u.g.j.j.j.j.j.j.j.j.A.Y.Y.Y.Y.Y.Y.Y.g.i.i.u.@.b b b b Z 0.  r & Q.",
"Q.: 9 o 4.n b b b b W Y.Y.Y.Y.Y.*.b b b b b b C j.j.j.j.3.b b b B R i.j.j.j.j.j.S.Y.Y.Y.Y.Y.Y.S.G b b b b b b b b b n 4.o 9 = Q.",
"Q., @ ^ $.b b b b b @.Y.Y.Y.Y.Y.5.b b b b b b C j.j.j.j.3.b b b b b n *.j.j.j.j.Y.E.I.Y.Y.Y.N.B b b b b b b b b b b b ~ ^ a , Q.",
"Q.3 . ( E b b b b b $.Y.Y.Y.Y.Y.7.b b b b b b C j.j.j.j.*.b b b b b b b *.j.j.M.W.W.I.Y.Y.G.M b b b b b b b b b b b b ! ) X 3 Q.",
"Q.6   ' I b b b b b @.Y.Y.Y.Y.Y.u.b b b b b b C j.j.j.j.*.b b b b b b b b u.j.G.W.W.Y.Y.Y.W b b b b b b b b b b b b b P '   6 Q.",
"Q.2   { P b b b b b @.Y.Y.Y.Y.Y.u.b b b b b b C j.j.j.j.*.b b b b b b b n G j.Y.W.W.Y.Y.S.b b b b b b b b b b b b b b P {   2 Q.",
"Q.k   | P b b b b b @.Y.Y.Y.Y.Y.i.b b b b b b B j.j.j.j.&.b b b b b b b b b d.W.W.W.W.I.&.b b b b b b b b b b b b b b P }   k Q.",
"Q.1   } P b b b b b W Y.Y.Y.Y.Y.i.b b b b b b C j.j.j.j.*.b b b b b b b b b d.W.W.W.W.I.n b b b b b b b b b b b b b b L |   1 Q.",
"Q.2   { P b b b b b K Y.Y.Y.Y.Y.s.b b b b b b B j.j.j.j.$.b b b b b b b b b S.W.W.E.E.A.b b b b b b b b b b b b b b b P {   2 Q.",
"Q.6   ] P b b b b b G Y.Y.Y.Y.Y.d.b b b b b b C j.j.j.j.&.b b b b b b b b Q I.E.W.W.W.j.b b b b b b b b b b b b b b b P ]   6 Q.",
"Q.5 . _ E b b b b b B Y.Y.Y.Y.Y.g.b b b b b b B j.j.g.g.&.b b b b b b b b M.Y.Y.W.W.W.j.A b b b b b b b b b b b b b b I _ . 5 Q.",
"Q., @ ^ ~ b b b b b b I.Y.Y.Y.Y.S.b b b b b b B j.j.j.j.$.b b b b b b b K Y.Y.I.W.W.I.j.$.b b b b b b b b b b b b b b ! ^ @ , Q.",
"Q., 9 # <.b b b b b b S.Y.Y.Y.Y.Y.M b b b b b B j.j.j.j.$.b b b b b b b A.Y.Y.I.W.W.A.g.g.C b b b b b b b b b b b b b ,.# 9 , Q.",
"Q.& i   y.B b b b b b g.Y.Y.Y.Y.Y.W b b b b b Z j.j.j.j.$.b b b b b n u.Y.Y.Y.Y.Y.E.j.j.j.7.M b b b b b b b b b b b Z y.  i > Q.",
"Q., d   ..L b b b b b *.Y.Y.Y.Y.Y.M.b b b b b B j.j.j.j.$.b b b b b 7.Y.Y.Y.Y.Y.Y.G.j.j.j.g.5.B b b b b b b b b b b P |   g , Q.",
"Q.Q.5 . ( E b b b b b J Y.Y.Y.Y.Y.Y.i.G M M B C s.d.j.g.$.b b B Q A.Y.Y.Y.Y.Y.Y.I.g.g.g.j.j.j.s.$.K A n n b b b b b E ( . 5 Q.Q.",
"Q.Q., 9 o 2.n b b b b b G.Y.Y.Y.Y.Y.Y.Y.Y.Y.Y.Y.Y.I.K.G.S.G.K.Y.Y.Y.Y.Y.Y.Y.Y.Y.i.@.j.j.j.j.j.j.j.j.j.j.g.7.b b b n 2.o 9 , Q.Q.",
"Q.Q., u   | P b b b b b *.Y.Y.Y.Y.Y.Y.Y.Y.Y.Y.Y.Y.Y.Y.Y.Y.Y.Y.Y.Y.Y.Y.Y.Y.Y.Y.G.C M s.g.j.j.j.j.j.j.j.j.j.i.b b b L =.  u , Q.Q.",
"Q.Q.Q.3 X ^ >.b b b b b M N.Y.Y.Y.Y.Y.Y.Y.Y.Y.Y.Y.Y.Y.Y.Y.Y.Y.Y.Y.Y.Y.Y.Y.Y.Y.K b b A s.j.j.j.j.j.j.g.g.g.i.b b n >.^ X 3 Q.Q.Q.",
"Q.Q.Q., i   w.H b b b b b M s.Y.Y.Y.Y.Y.Y.Y.Y.Y.Y.Y.Y.Y.Y.Y.Y.Y.Y.Y.Y.Y.Y.K.R b b b b B *.g.g.j.j.j.j.j.j.i.b b H w.  i , Q.Q.Q.",
"Q.Q.Q.Q.6 . / ~ M b b b b b b @.S.Y.Y.Y.Y.Y.Y.Y.Y.Y.Y.Y.Y.Y.Y.Y.Y.Y.Y.I.i.C b b b b b b b G $.u.j.j.j.j.j.s.b n >./ . 6 Q.Q.Q.Q.",
"Q.Q.Q.Q., q   q.I b b b b b b b b J *.d.S.K.Y.Y.Y.Y.Y.G.A.m.s.7.3.@.J M b b b b b b b b b b b b n C J Y Q Q b L B.  q = Q.Q.Q.Q.",
"Q.Q.Q.Q.Q.6 X # 1.B b b b b b b b b b b b b b b b b b b b b b b b b b b b b b b b b b b b b b b b b b b b b Z 6.l.O 5 Q.Q.Q.Q.Q.",
"Q.Q.Q.Q.Q.= s   ` ~ n b b b b b b b b b b b b b b b b b b b b b b b b b b b b b b b b b b b b b b b b b b b ~ T.l.u : Q.Q.Q.Q.Q.",
"Q.Q.Q.Q.Q.Q.< 9 . c.P b b b b b b b b b b b b b b b b b b b b b b b b b b b b b b b b b b b b b b b b b b I J.W.O., Q.Q.Q.Q.Q.Q.",
"Q.Q.Q.Q.Q.Q.Q.5 + X.Z.P b b b b b b b b b b b b b b b b b b b b b b b b b b b b b b b b b b b b b b b b P C.W.K.5 Q.Q.Q.Q.Q.Q.Q.",
"Q.Q.Q.Q.Q.Q.Q.& f { E.h.H b b b b b b b b b b b b b b b b b b b b b b b b b b b b b b b b b b b b b b H h.E.R.c , Q.Q.Q.Q.Q.Q.Q.",
"Q.Q.Q.Q.Q.Q.Q.Q.& z R.W.h.L b b b b b b b b b b b b b b b b b b b b b b b b b b b b b b b b b b b b L f.W.R.V , Q.Q.Q.Q.Q.Q.Q.Q.",
"Q.Q.Q.Q.Q.Q.Q.Q.Q., F R.W.Z.P M b b b b b b b b b b b b b b b b b b b b b b b b b b b b b b b b n P C.T.E.F , Q.Q.Q.Q.Q.Q.Q.Q.Q.",
"Q.Q.Q.Q.Q.Q.Q.Q.Q.Q., V R.R.F.~ n b b b b b b b b b b b b b b b b b b b b b b b b b b b b b b B E F.E.R.D , Q.Q.Q.Q.Q.Q.Q.Q.Q.Q.",
"Q.Q.Q.Q.Q.Q.Q.Q.Q.Q.Q., m J.E.T.1.P b b b b b b b b b b b b b b b b b b b b b b b b b b b n P 4.T.E.K.m , Q.Q.Q.Q.Q.Q.Q.Q.Q.Q.Q.",
"Q.Q.Q.Q.Q.Q.Q.Q.Q.Q.Q.Q., 5 m.W.E.D.! H M b b b b b b b b b b b b b b b b b b b b b b b S ~ w.b.R.m.l * Q.Q.Q.Q.Q.Q.Q.Q.Q.Q.Q.Q.",
"Q.Q.Q.Q.Q.Q.Q.Q.Q.Q.Q.Q.Q., 3 T L.E.H.e.~ H n b b b b b b b b b b b b b b b b b b n H ~ e.(   z.T < , Q.Q.Q.Q.Q.Q.Q.Q.Q.Q.Q.Q.Q.",
"Q.Q.Q.Q.Q.Q.Q.Q.Q.Q.Q.Q.Q.Q.Q., 7 i.H.  / 9.1.I H n b b b b b b b b b b b b n H I 1.9./     w 7 , Q.Q.Q.Q.Q.Q.Q.Q.Q.Q.Q.Q.Q.Q.Q.",
"Q.Q.Q.Q.Q.Q.Q.Q.Q.Q.Q.Q.Q.Q.Q.Q.Q., 7 0 .   # ` 8.2.,.E P L H H Z H L I ~ ~ 2.-.` #   . e 2 : Q.Q.Q.Q.Q.Q.Q.Q.Q.Q.Q.Q.Q.Q.Q.Q.Q.",
"Q.Q.Q.Q.Q.Q.Q.Q.Q.Q.Q.Q.Q.Q.Q.Q.Q.Q.Q., 6 y 8       % ( b.P.F.D.D.F.P.T.T.n..     8 y 6 , Q.Q.Q.Q.Q.Q.Q.Q.Q.Q.Q.Q.Q.Q.Q.Q.Q.Q.Q.",
"Q.Q.Q.Q.Q.Q.Q.Q.Q.Q.Q.Q.Q.Q.Q.Q.Q.Q.Q.Q.Q.= , 6 u 0 a X k.W.W.W.W.W.E.W.U.r.0 u 6 , & Q.Q.Q.Q.Q.Q.Q.Q.Q.Q.Q.Q.Q.Q.Q.Q.Q.Q.Q.Q.Q.",
"Q.Q.Q.Q.Q.Q.Q.Q.Q.Q.Q.Q.Q.Q.Q.Q.Q.Q.Q.Q.Q.Q.Q.Q., = < < x v N D D N v x < < , > Q.Q.Q.Q.Q.Q.Q.Q.Q.Q.Q.Q.Q.Q.Q.Q.Q.Q.Q.Q.Q.Q.Q.Q.",
"Q.Q.Q.Q.Q.Q.Q.Q.Q.Q.Q.Q.Q.Q.Q.Q.Q.Q.Q.Q.Q.Q.Q.Q.Q.Q.Q.Q.Q.Q.Q.- , Q.Q.Q.Q.Q.Q.Q.Q.Q.Q.Q.Q.Q.Q.Q.Q.Q.Q.Q.Q.Q.Q.Q.Q.Q.Q.Q.Q.Q.Q.Q."
};
